<?xml version="1.0" encoding="utf-8"?>
<!-- Generator: Adobe Illustrator 24.1.0, SVG Export Plug-In . SVG Version: 6.00 Build 0)  -->
<svg version="1.1" id="Layer_1" xmlns="http://www.w3.org/2000/svg" xmlns:xlink="http://www.w3.org/1999/xlink" x="0px" y="0px"
	 viewBox="0 0 1080 247.4" style="enable-background:new 0 0 1080 247.4;" xml:space="preserve">
<style type="text/css">
	.st0{fill:#A57C37;}
	.st1{fill-rule:evenodd;clip-rule:evenodd;fill:#A57C37;}
</style>
<g id="Layer_2_1_">
	<g id="logotype">
		<g id="Layer_2-2">
			<g id="oak-leaf-logo">
				<g id="logo-elements">
					<g id="oak-leaf-shadow">
						<path class="st0" d="M225.9,11.1c-0.4,0.1-0.8,0.2-1.2,0.3l-49.4,117c0.5-0.2,1-0.4,1.4-0.7L225.9,11.1z"/>
						<path class="st0" d="M261.6,129c-1.3-4.2-6.6-17.8-13.9-39.3h-45.5c-0.6,1.7-1.3,3.5-2,5.3h44.2c5.4,15.8,9.6,27.3,12,34
							L261.6,129L261.6,129z"/>
						<polygon class="st0" points="248,137.7 244.6,137.7 244.6,143.8 290.6,143.8 290.6,138.5 248,138.5 						"/>
						<polygon class="st0" points="165.8,137.7 162.5,137.7 162.5,143.8 204,143.8 204,138.5 165.8,138.5 						"/>
						<path class="st0" d="M243.5,5.4c-0.5,0.5-0.8,1.2-1,1.9C243.1,6.8,243.4,6.2,243.5,5.4z"/>
						<polygon class="st0" points="238.6,78.9 243.8,78.9 227.3,29 224.4,35.8 						"/>
						<path class="st0" d="M123.5,114c-12.6,18.2-33.4,28.8-55.4,28.4c-41.3,0-64.7-27.1-64.7-67.2c0-13,3.3-25.9,9.6-37.2
							C4.4,50.5-0.1,65.4,0,80.6c0,40.1,23.4,67.2,64.7,67.2C89,148.2,111.6,135.2,123.5,114z"/>
						<path class="st0" d="M107.9,117.7c0.1-0.1,0.2-0.2,0.4-0.3c0-0.2,0.1-0.4,0.2-0.5C108.3,117.1,108.1,117.4,107.9,117.7z"/>
						<path class="st0" d="M18.9,29.2C16.7,32,14.7,34.9,13,38c0.8-1.1,1.6-2.3,2.4-3.4C16.5,32.8,17.6,31,18.9,29.2z"/>
						<path class="st0" d="M63.9,16.3c24.2,0,51.8,19.7,51.8,66.1c0,13.8-2.6,25.3-7.2,34.4c6.6-9.8,10.5-23,10.5-39.8
							c0-46.4-27.5-66.2-51.8-66.2c-12.6-0.3-24.6,5-32.8,14.6c-1.4,1.8-2.7,3.7-3.8,5.7C38.8,21.5,50.2,16.3,63.9,16.3z"/>
						<path class="st0" d="M341.6,128.9V43.2c0-21.1-0.4-29-5.8-29h-12.1v-0.7h-3.3v6.2h12.1c5.4,0,5.8,7.8,5.8,28.9V129h2.7
							C341.2,129,341.4,128.9,341.6,128.9z"/>
						<path class="st0" d="M361.6,14.3v5.3h6.4v-5.4h-5.9C361.9,14.2,361.7,14.3,361.6,14.3z"/>
						<polygon class="st0" points="328.9,137.7 325.6,137.7 325.6,143.8 373.2,143.8 373.2,138.5 328.9,138.5 						"/>
						<path class="st0" d="M373.3,76.7l-11.7,9.9V89l8.4-7c43.1,56.6,47,61.8,50.1,61.8h27.1v-5.4h-23.8
							C420.3,138.5,416.4,133.4,373.3,76.7z"/>
						<path class="st0" d="M432.5,17.9l-45,45.3c0.3,0.4,0.6,0.7,0.9,1.1l40.7-40.9c2.3-2.2,3.9-3.7,6.5-3.7h7v-5.4H439
							C436.3,14.2,434.7,15.7,432.5,17.9z"/>
						<path class="st0" d="M420.5,16.1c0-1.6-1-1.9-3.3-1.9h-14.2v-0.7h-3.3v6.2h14.1c2.1,0,3.1,0.2,3.2,1.6c0.8-1,1.6-1.9,2.3-2.7
							C419.9,17.8,420.3,17,420.5,16.1z"/>
						<path class="st0" d="M586.4,14.3v5.3h6.6v-5.4h-5.9C586.9,14.2,586.6,14.3,586.4,14.3z"/>
						<path class="st0" d="M553.8,137.7h-3.4v6.1h97.8c0.5-1.9,1.1-3.6,1.6-5.4h-96V137.7z"/>
						<path class="st0" d="M566.5,128.9V43.2c0-21.1-0.4-29-5.7-29h-12.1v-0.7h-3.4v6.2h12.1c5.3,0,5.7,7.8,5.7,28.9V129h2.7
							C566.1,129,566.3,128.9,566.5,128.9z"/>
						<path class="st0" d="M653.8,118.6c-0.3,0.2-0.5,0.5-0.7,0.8C653.4,119.1,653.6,118.8,653.8,118.6z"/>
						<path class="st1" d="M769.5,76.2c0-5.5-2-5.7-25.5-5.7h-25.9v5.4h22.5c23.4,0,25.4,0.2,25.4,5.7v7.2h5.5v-5.4h-2.2V76.2z"/>
						<path class="st1" d="M700.7,129V43.2c0-21.1-0.4-29-5.7-29h-12.1v-0.7h-3.4v6.2h12.2c5.3,0,5.7,7.8,5.7,28.9v83.8h0.3
							C699.8,132.4,700.7,130.9,700.7,129z"/>
						<path class="st1" d="M778.9,23.5c-0.6-2.5-4.1-8-36.6-8h-20.1c-3.1,0-4.1,1.6-4.1,3.7V21c0.3,0,0.4-0.1,0.7-0.1H739
							c32.5,0,35.9,5.6,36.5,8s0.8,3.8,2.5,3.8c1.2-0.3,1.9-0.6,2.6-5.5C779.7,26.7,779.3,25.7,778.9,23.5z"/>
						<path class="st1" d="M688,137.7h-3.4v6.1h97.8c0.5-1.9,1.1-3.6,1.6-5.4h-96V137.7z"/>
						<polygon class="st0" points="899.7,137.7 896.3,137.7 896.3,143.8 942.3,143.8 942.3,138.5 899.7,138.5 						"/>
						<path class="st0" d="M913.5,129c-1.3-4.2-6.6-17.8-13.9-39.3H854c-0.7,1.7-1.3,3.5-2,5.3h44.2c5.3,15.8,9.6,27.3,12,34
							L913.5,129L913.5,129z"/>
						<path class="st0" d="M878.2,11.1c-0.4,0.1-0.8,0.2-1.2,0.3l-49.5,117c0.5-0.2,1-0.4,1.4-0.7L878.2,11.1z"/>
						<polygon class="st0" points="817.5,137.7 814.2,137.7 814.2,143.8 855.7,143.8 855.7,138.5 817.5,138.5 						"/>
						<polygon class="st0" points="890.4,78.9 895.5,78.9 879,29 876.1,35.8 						"/>
						<path class="st1" d="M1061.3,76.2c0-5.5-2-5.7-25.5-5.7H1010v5.4h22.7c23.4,0,25.5,0.2,25.5,5.7v7.2h5.5v-5.4h-2.2
							L1061.3,76.2z"/>
						<path class="st1" d="M992.6,129V43.2c0-21.1-0.4-29-5.8-29h-12.1v-0.7h-3.3v6.2h12.1c5.3,0,5.7,7.8,5.7,28.9v83.8h0.3
							c1.6,0.2,3-0.9,3.2-2.5C992.6,129.6,992.6,129.3,992.6,129z"/>
						<polygon class="st1" points="979.8,137.7 976.5,137.7 976.5,143.8 1024.1,143.8 1024.1,138.5 979.8,138.5 						"/>
						<path class="st1" d="M1070.8,23.5c-0.6-2.5-4.1-8-36.5-8h-20.1c-3.1,0-4.1,1.6-4.1,3.7V21c0.3,0,0.5-0.1,0.8-0.1h20.1
							c32.4,0,35.9,5.6,36.6,8s0.8,3.8,2.4,3.8c1.2-0.3,1.9-0.6,2.7-5.5C1071.5,26.7,1071.1,25.7,1070.8,23.5z"/>
					</g>
					<g id="vineyards">
						<path d="M90.6,211c-1.9-4.8-2.7-8.3-6.2-8.3v-1.1c2.2,0.2,4.1,0.4,6.2,0.4c2.1,0,4.1-0.2,6.2-0.4v1.1c-1.6,0-3.3,0.3-3.3,2.1
							c0,2.6,1.7,6.6,3.2,10.8l8.3,24.8h0.1l9.9-29.6c0.7-2,1.1-4,1.2-6.1c0-1.2-1.3-2-3.3-2v-1.1c1.6,0.2,3.3,0.4,4.9,0.4
							c2,0,4-0.2,5.9-0.4v1.1c-2.2,0-3.3,1.8-4.4,5l-1.5,4.6l-11.9,34.3h-2.5L90.6,211z"/>
						<path d="M205.4,242.8c0,2,1.5,2.8,3.4,2.8v1.1c-1.9-0.2-4-0.4-5.7-0.4s-3.8,0.2-5.7,0.4v-1.1c1.9,0,3.4-0.8,3.4-2.8v-37.3
							c0-2.7-1.2-2.8-3.4-2.8v-1.1c1.9,0.2,3.8,0.4,5.7,0.4c1.9,0,3.8-0.2,5.7-0.4v1.1c-2.1,0-3.4,0.1-3.4,2.8V242.8z"/>
						<path d="M290.6,206.4c0-3-1.2-3.6-3.4-3.6v-1.1c1.5,0.2,3,0.4,4.5,0.4c1.4,0,2.9-0.1,4.3-0.4c8.6,12.3,17.2,24.6,25.4,37.4
							h0.1v-32.7c0-3-2.2-3.6-4-3.6v-1.1c1.8,0.2,3.7,0.4,5.5,0.4c1.8,0,3.6-0.2,5.4-0.4v1.1c-2.2,0-3.4,0.6-3.4,3.6v40.3h-3.4
							c-8.6-13.2-18.2-26.9-27.4-40.2h-0.1v35.4c0,2.4,1.8,3.8,4.4,3.8v1.1c-2-0.3-3.9-0.4-5.9-0.4c-1.8,0-3.6,0.2-5.4,0.4v-1.1
							c1.9,0,3.4-0.8,3.4-3.6L290.6,206.4z"/>
						<path d="M410.9,206.1c0-2.5-2.1-2.9-3.8-2.9V202h32.5c0,3.2,0.3,6.3,0.7,9.4h-1.1c-1.5-4-1.3-6.6-6.5-6.6h-17.2v16.8H427
							c2.9,0,3.4-1.3,3.9-4.6h1.4c-0.2,2.2-0.4,4.4-0.4,6.6c0,1.8,0.2,3.6,0.4,5.4h-1.7c0-3.1-0.6-4.6-3.8-4.6h-11.4v19.1h18
							c5.4,0,6.6-3.1,7.4-7.9h1.5c-0.7,3.5-1,7.1-0.9,10.7h-34.3v-1.1c2.3,0,3.8-0.3,3.8-3.1L410.9,206.1z"/>
						<path d="M515.6,201.6c2,0.2,4.1,0.4,6.1,0.4s4.2-0.2,6.3-0.4v1.1c-1.9,0-3.3,0.3-3.3,1.9c0.5,2.2,1.4,4.2,2.7,6.1l7.7,14.6
							l7.3-13.4c1.4-2.2,2.3-4.6,2.6-7.1c0-1.5-1.5-2-3.3-2v-1.1c2.2,0.2,4.4,0.4,6.6,0.4c1.7,0,3.5-0.2,5.2-0.4v1.1
							c-2.7,0-4.3,2.7-7.3,8.2l-9.7,17.8v13.6c0,2.7,1.5,3.2,3.2,3.2v1.1c-1.7-0.2-3.4-0.4-5.2-0.4c-2,0-4,0.2-5.9,0.4v-1.1
							c1.6,0.2,3-0.9,3.3-2.5c0-0.2,0-0.3,0-0.5v-14l-10-19.1c-2.5-4.8-4.2-6.8-6.3-6.8L515.6,201.6z"/>
						<path d="M623.1,245.6c2.8-0.4,4.3-3.2,5.7-7.1l9.7-25.1c1.3-2.8,2.2-5.8,2.7-8.9c0-1.3-1.1-1.8-3-1.8v-1.1
							c1.6,0.3,3.3,0.4,4.9,0.4c1.4,0,2.8-0.2,4.1-0.4c0.6,2,1.9,5.5,2.9,8.1l8.3,20.9l4.3,11c0.6,2,2.2,3.5,4.2,4v1.1
							c-1.8-0.2-3.6-0.4-5.4-0.4c-2.1,0-4.1,0.2-6.2,0.4v-1.1c1.8-0.4,3.1-0.8,3.1-2.8s-4.2-11.3-4.9-13.5h-17.9
							c-1.3,3.1-4.4,11.4-4.4,13.6s1.8,2.6,3.1,2.8v1.1c-1.5-0.2-3-0.4-4.5-0.4c-2.2,0-4.5,0.2-6.8,0.4L623.1,245.6z M652.4,226.5
							l-8-20.6l-7.7,20.6H652.4z"/>
						<path d="M744.2,206.9c0-3.3-2.1-3.8-3.8-3.8V202h18.3c8.5,0,14.2,3.1,14.2,10.6c0,8.1-8.1,12.2-15.5,12.2
							c5,5.7,10.1,11.3,14.7,17.5c1.4,2,3.6,3.2,6.1,3.2v1.1c-1.4-0.2-2.7-0.4-4.1-0.4c-1.4,0-2.8,0.2-4.2,0.4
							c-4.8-6.5-9.9-12.8-15.4-18.8c-3.2-3.4-4-4.3-4-4.7c0-0.3,0.2-0.6,0.5-0.6h0.1c0.8,0,1.9,0.1,3.4,0.1c6.1,0,13.8-2.2,13.8-9.4
							c0-6.6-6.2-8.4-12.7-8.4h-6.9v36.9c0,3.5,1.7,3.9,3.8,3.9v1.1c-1.7-0.2-3.4-0.4-5.2-0.4c-2.2,0-4.5,0.2-6.9,0.4v-1.1
							c1.7,0,3.5-0.3,3.8-3.9L744.2,206.9z"/>
						<path d="M856.6,206c0-2.6-1.3-2.8-3.4-2.8v-1.1H868c15.6,0,24.1,9.9,24.1,22.1c0,13-8.5,22.1-23.1,22.1h-15.8v-1.1
							c1.9,0,3.4-0.8,3.4-2.8V206z M861.2,243.5h6.1c12,0,20.3-6.5,20.3-18.2s-6.9-20.4-21.6-20.4h-4.9V243.5z"/>
						<path d="M970.2,232.8c1,8.1,4.3,11.8,12.7,11.8c6.7,0,13-3.2,13-10.6s-6.2-7.6-12.8-8.9c-9.4-1.8-14.9-4.7-14.9-11.9
							c0-8.5,8.8-12.3,16.8-12.3c4.2,0.1,8.4,0.6,12.4,1.7c0,3.3,0.1,6.7,0.5,10h-1.7c-0.8-6.5-3.9-8.9-11.2-8.9
							c-5.7,0-12.6,2.5-12.6,8.9c0,5.4,5.1,6.9,12.3,8.2c8.2,1.4,15.8,3.5,15.8,12.1c0,9.4-7.8,14.4-18.2,14.4
							c-4.6,0.1-9.1-1-13.2-3.1c0-2.7-0.2-8.9-0.5-11.4H970.2z"/>
					</g>
					<g id="oak-leaf-black">
						<path d="M5.8,72c0-38.8,27.5-71.1,68.4-71.1c41.3,0,64.7,27.1,64.7,67.2c0,38.8-27.5,71.1-68.4,71.1
							C29.2,139.1,5.8,111.9,5.8,72z M23.2,66.2c0,46.4,27.5,66.1,51.8,66.1c27.8,0,46.4-21.2,46.4-58.5c0-46.4-27.5-66.1-51.8-66.1
							c-27.7-0.1-46.4,21-46.4,58.4V66.2z"/>
						<path d="M203.6,86.2c-4.5,11.5-11.9,31.7-11.9,37.4c0,4.3,2,5.3,5.1,5.3h12.9v6.2h-41.5V129h4.1c3.1,0,6.2-0.6,7.4-3.3l52-123
							c5.1-1.3,10.8-2.7,12.1-2.7c1-0.1,2,0.6,2.1,1.7c0,0.1,0,0.3,0,0.4c0,2.7-3.8,2.5-3.8,6.4c0,8.8,25.5,77.4,35.5,104.8
							c4.7,12.9,7.2,15.8,12.5,15.8h6.1v6.2h-45.9V129h11.1c1.4,0,2.9-0.6,2.9-2s-5.8-15.8-14.2-40.7L203.6,86.2z M229.2,24.2
							l-22.8,54.7h40.9L229.2,24.2z"/>
						<path d="M361.6,100c0,21.2,0.4,29,5.8,29H379v6.2h-47.6V129h9.6c2.2,0,3.1-1.4,3.1-3.3V39.9c0-21.2-0.4-29-5.7-29h-12.1V4.8
							h47.6v6.2h-9.3c-2.2,0-3,1.4-3,3.3v61.8c22-19.3,61.4-58.4,61.4-63.3c0-1.6-1-1.9-3.3-1.9h-14.2V4.8h42.9v6.1h-7
							c-2.7,0-4.3,1.4-6.6,3.7L387,62.7c33.1,39.2,46,58.3,54,64.5c2.7,2.1,4.7,2.1,11.9,2.1v6h-27.1c-3.1,0-7-5.2-50.1-61.8
							l-14.2,11.8V100z"/>
						<path d="M598.8,10.9h-9.3c-1.6-0.1-3,1-3.1,2.6c0,0,0,0,0,0c0,0.2,0,0.4,0,0.7v88.1c0,25.5,2.3,25.5,8.4,25.5h13.8
							c34.9,0,42.9-5.1,46.4-10.9c0.6-1,1.1-2.3,2.5-2.3c0.8,0,1.6,1.2,1.6,2.3c0,1.9-2.7,10-5.1,18.3h-97.7V129h9.6
							c2.3,0,3.1-1.4,3.1-3.3V39.9c0-21.2-0.4-29-5.8-29h-12.1V4.8h47.7L598.8,10.9z"/>
						<path d="M703.1,39.9c0-21.2-0.4-29-5.8-29h-12.1V4.8h102.9c-1.9,18-2.4,18.7-4.3,19.1c-1.6,0-2-1.1-2.5-3.8s-4.1-8-36.6-8
							h-20.1c-3,0-4.1,1.6-4.1,3.8v44.5h23.8c21.2,0,27.6-0.8,27.6-7v-8h5.5v34.7h-5.6v-7.2c0-5.6-2.1-5.8-25.5-5.8h-25.9v35.1
							c0,25.5,2.3,25.5,8.4,25.5h13.8c34.9,0,43-5.1,46.4-10.9c0.6-1,1-2.3,2.5-2.3c0.8,0,1.6,1.2,1.6,2.3c0,1.9-2.7,10-5.2,18.3
							h-97.8V129h9.7c2.3,0,3.1-1.4,3.1-3.3L703.1,39.9z"/>
						<path d="M855.3,86.2c-4.5,11.5-11.9,31.7-11.9,37.4c0,4.3,2.1,5.3,5.2,5.3h12.9v6.2H820V129h4c3.1,0,6.2-0.6,7.4-3.3l52-123
							c5.1-1.3,10.9-2.7,12.1-2.7c1-0.1,2,0.7,2.1,1.7c0,0.1,0,0.3,0,0.5c0,2.7-3.8,2.5-3.8,6.4c0,8.8,25.4,77.4,35.5,104.8
							c4.7,12.9,7.2,15.8,12.5,15.8h6.1v6.2h-45.9V129h11.1c1.5,0,2.9-0.6,2.9-2s-5.7-15.8-14.2-40.7L855.3,86.2z M881,24.2
							L858.2,79h40.9L881,24.2z"/>
						<path d="M1048,132.9c-0.1-7.7,6.1-14.1,13.8-14.1c7.7-0.1,14.1,6.1,14.1,13.9c0.1,7.7-6.1,14.1-13.8,14.1h-0.1
							c-7.6,0.1-13.9-6-14-13.6L1048,132.9z M1062,144.4c6.4,0.1,11.6-5,11.7-11.3c0.1-6.4-5-11.6-11.3-11.7
							c-6.4-0.1-11.6,5-11.7,11.3v0.2c-0.2,6.1,4.6,11.3,10.7,11.5c0,0,0,0,0,0L1062,144.4z M1059.1,140.9h-2.4V125h6
							c3.8,0,5.7,1.4,5.7,4.5c0.1,2.3-1.6,4.2-3.9,4.4c0,0,0,0,0,0h-0.2l4.5,7h-2.7l-4.2-6.9h-2.8L1059.1,140.9z M1062,131.9
							c2,0,3.8-0.1,3.8-2.6c0-2-1.8-2.4-3.5-2.4h-3.3v5L1062,131.9z"/>
						<path d="M977.1,4.7H1080c-1.9,18-2.5,18.7-4.3,19.1c-1.7,0-2.1-1.1-2.5-3.8s-4.1-8-36.5-8h-20.2c-3.1,0-4.1,1.6-4.1,3.8v44.5
							h23.8c21.2,0,27.5-0.8,27.5-7v-8h5.6v34.7h-5.6v-7.2c0-5.6-2-5.8-25.4-5.8h-25.9V100c0,21.2,0.4,29,5.7,29h11.7v6.2h-47.5V129
							h9.6c1.6,0.1,3-1,3.1-2.6c0,0,0,0,0,0c0-0.2,0-0.5,0-0.7V39.9c0-21.2-0.4-29-5.8-29h-12.1L977.1,4.7z"/>
					</g>
				</g>
			</g>
		</g>
	</g>
</g>
</svg>
