<svg xmlns="http://www.w3.org/2000/svg" viewBox="0 0 283.04 345.29"><g id="Layer_2" data-name="Layer 2"><g id="Layer_1-2" data-name="Layer 1"><g id="Layer_2-2" data-name="Layer 2"><g id="oak-leaf-logo"><g id="logo-elements"><g id="tree"><g id="tree-2" data-name="tree"><path d="M276.14,180.26l1.78-2.32-.28-.34a34.34,34.34,0,0,0-4-4l-1.4-1.44-.56-1.6-.22-.59-4.56,2.79c-.12-.06-.82-.48-.82-.48l-1.32-.83c.05,0,.61-1.67.61-1.67l.15-.43c1.75-.22,3.5-.5,5.23-.84l-.21-1.15a71,71,0,0,1-19.42.48,33.63,33.63,0,0,1-3.61-3.65,2.14,2.14,0,0,0,.2-.32.6.6,0,0,0-.1-.77c-.44-.41-1,.07-1.57.61a5.56,5.56,0,0,1-2.9.92c-1.14.16-2.29.34-2.8,1.1-1.76-.5-3.5-1.06-5.2-1.7a116.71,116.71,0,0,0,22.69-5c8.31-1.57,17.26-2.21,25.21-6.12l-.48-1.06a47.65,47.65,0,0,1-12,3.1,3,3,0,0,0,.2-.29l1.78-.92a33.39,33.39,0,0,0,5-2.51l.38-.24-1-2.77a1.89,1.89,0,0,1-.05-1,5.22,5.22,0,0,1,1.38-2.37l.9-.89h-1.25c-.84,0-2.88-1.24-4.6-2.42l-.09-.43-.43.06-.68-.49a2.35,2.35,0,0,0,.14-.37.64.64,0,0,0-.27-.72c-.52-.3-.92.27-1.4.94a4.13,4.13,0,0,1-1.86,1.24c-14.23,2.55-27.54,9.65-39.54,17.18v-1.3c-.22-1.14-2.68-1.65-3-1.71.08-.12-.08-1.26.32-6.25.1-1.26-1.18-1.87-2.41-2.46a5.75,5.75,0,0,1-2.5-1.76c-.41-.7-.78-1.31-1.3-1.06a.64.64,0,0,0-.34.7,1.64,1.64,0,0,0,.1.38c-1.92,1.2-5,2.86-6,2.78l-1.26-.1.84,1a5.54,5.54,0,0,1,1.17,2.47,1.91,1.91,0,0,1-.13,1l-1.21,2.69.34.25a34.44,34.44,0,0,0,4.78,2.94s1.68,1,1.69,1.07l.77,1.21c-3.39,0-6.76-.06-10.13-.19-8.46-.27-16.93-1.7-25.54-3,9.71-4,18.56-9.62,27.52-14.43,19.83,1.16,40.62.23,58.8-8.81l-.49-1.06c-16.82,7.85-35.58,8.79-53.9,7.6,7.66-3.78,15.48-6.66,24.08-7.07h3.56l1.16,0a137.18,137.18,0,0,0,24.48-3l-.23-1.15a140.39,140.39,0,0,1-27.17,1.51c3.62-1.52,7.15-3.13,10.62-4.88l-.23-.56c.31.29.65.58,1,.85a5.75,5.75,0,0,1,2,2.29c.24.78.45,1.46,1,1.35.31-.06.44-.3.48-.62a2.41,2.41,0,0,0,0-.38c2.15-.72,5.51-1.63,6.51-1.31l1.2.39-.58-1.12a5.4,5.4,0,0,1-.58-2.67,2,2,0,0,1,.35-.93l1.78-2.33-.27-.33c-.45-.5-1.19-1.31-1.92-2.07,2.81-.79,5.55-1.59,8.18-2.19,3.07,1.41,6.08-.67,6.08-.67s-1.11-.39-2.39-.88c2.28-1.83,1.23-5.19,1.23-5.19a5.18,5.18,0,0,0-4-.73,3.71,3.71,0,0,0-2.2,2.12,22.14,22.14,0,0,1-1-2.87c-2.17,2.31-.56,5.69-.56,5.69a8,8,0,0,0,1.44,1.64c-2.57.58-5.26,1.26-8,1.88a4.35,4.35,0,0,0-.85-.69s-1.38-1.42-1.4-1.43-.56-1.62-.56-1.62l-.22-.59-4.55,2.8c-.13-.06-.84-.47-.84-.47l-1.31-.84s.6-1.68.6-1.68v0q2.85-1,5.61-2.13l-.93-2.14a89.47,89.47,0,0,1-27.31,5.39c10-7.24,25.69-4.33,36.29-13.24-4.79,3.28-10.39,4.34-16.16,5.17l1.1-1.42c.54-1-1.08-3-1.26-3.17.12,0,.59-.84,3-3.54a48.37,48.37,0,0,0,11.15-3.89l-.51-1a46.28,46.28,0,0,1-9.18,3,5,5,0,0,0-.77-2.62,5.59,5.59,0,0,1-.88-2.94c0-.3.07-.61.08-.91,4.95-1.78,10-3.7,13.59-8,4.28,1.85,7.27-2.06,7.27-2.06s-1.19,0-2.56-.1c1.62-2.45-.41-5.33-.41-5.33a5.23,5.23,0,0,0-4,.54,3.78,3.78,0,0,0-1.45,2.68,26,26,0,0,1-1.68-2.5c-1.36,2.86,1.21,5.58,1.21,5.58a8,8,0,0,0,1.73,1,33,33,0,0,1-11.38,4.76c1.81-1.76,3.49-3.67,4.1-6.39a48.37,48.37,0,0,1-8.41,6.82c-1.38.67-2.79,1.27-4.21,1.83a4,4,0,0,1-1.39-.64l-.93-.86.06,1.27a7,7,0,0,1-.06,1.12,90.39,90.39,0,0,1-20.78,4.26c4.06-10.15,18.06-11.89,28.06-17.55,3.91,1.19,6.58-2.31,6.58-2.31s-1.17,0-2.54-.09c1.61-2.45-.42-5.33-.42-5.33a5.24,5.24,0,0,0-4,.55,3.7,3.7,0,0,0-1.44,2.67,26.73,26.73,0,0,1-1.85-2.39c-1.34,2.87,1.22,5.58,1.22,5.58A7.9,7.9,0,0,0,252.76,76c-10.59,4.46-25,4.64-30.6,18-3.49.29-7,.48-10.58.65v-.1a5.31,5.31,0,0,1,.13-2.74,1.83,1.83,0,0,1,.58-.79l2.33-1.78-.18-.4a35.1,35.1,0,0,0-2.8-4.87s-1-1.72-1-1.74-.13-1.71-.13-1.71l0-.63-5.12,1.54c-.1-.09-.67-.68-.67-.68s-1-1.14-1.06-1.15,1-1.44,1-1.44l.23-.35a26.93,26.93,0,0,0,4.65.62,45,45,0,0,0,16.39-2.4c0,.28.08.57.11.87.18,1.26,1.54,1.58,2.87,1.9a5.53,5.53,0,0,1,2.81,1.2c.55.6,1,1.12,1.51.76a.62.62,0,0,0,.17-.76c0-.11-.12-.23-.16-.35,1.62-1.56,4.29-3.85,5.33-4l1.25-.16-1-.76a5.57,5.57,0,0,1-1.63-2.15,1.72,1.72,0,0,1-.09-1l.62-2.88-.38-.19A34.15,34.15,0,0,0,232,66.66L230.14,66l-.15-.17c5-1.14,9.78-3.19,14.3-4.95l-.43-1.07c-8,2.87-17.48,6.07-25.41,4.12A64.77,64.77,0,0,0,226,60.48c.44.21.82.29,1.06,0a.53.53,0,0,0,.05-.58,53.74,53.74,0,0,0,10-7.28l-1.59-1.7a48.31,48.31,0,0,1-6.5,4.87A6.06,6.06,0,0,1,230.63,54l1.14-.53L230.59,53a5.42,5.42,0,0,1-2.24-1.56,2.11,2.11,0,0,1-.35-.93l-.27-2.92-.42-.07a34.76,34.76,0,0,0-5.59-.21l-1.37-.06c3.56-1,7.16-2.08,10.16-4.4,3.5.58,5.84-2.48,5.84-2.48s-1.17,0-2.53-.09c1.6-2.45-.42-5.32-.42-5.32a5.19,5.19,0,0,0-4,.54A3.73,3.73,0,0,0,228,38.16a23.27,23.27,0,0,1-1.82-2.37c-1.34,2.87,1.21,5.58,1.21,5.58a7.93,7.93,0,0,0,2.41,1.3c-3.52,1.75-7.71,2.44-11.84,3.58l-.21-.11v.18a34.93,34.93,0,0,0-4.55,1.57l.21-.19c.71-.9-.51-3.12-.64-3.36.13,0,.89-.9,4.9-3.86,1-.74.63-2.11.25-3.44a5.77,5.77,0,0,1-.3-3c.24-.77.47-1.44-.07-1.68a.56.56,0,0,0-.73.21,1.83,1.83,0,0,0-.24.31c-2.15-.68-5.42-1.92-6-2.76l-.75-1-.17,1.27a5.3,5.3,0,0,1-1.09,2.51,1.93,1.93,0,0,1-.81.54l-2.81.85v.61a54.91,54.91,0,0,1-18,2.57,3.92,3.92,0,0,1,.41-1.53,1.86,1.86,0,0,1,.66-.73l2.49-1.53-.14-.42v-.06c5.81-2.43,11.42-5.44,15-10.79,4.27,1.85,7.25-2.07,7.25-2.07s-1.18,0-2.55-.09c1.62-2.45-.42-5.33-.42-5.33a5.15,5.15,0,0,0-4,.55,3.76,3.76,0,0,0-1.43,2.67,26.73,26.73,0,0,1-1.85-2.39c-1.35,2.87,1.21,5.58,1.21,5.58l.22.16c-3.29,4.51-8.62,7.19-14.32,9.43a15.27,15.27,0,0,0-1.35-2.79s-.79-1.82-.8-1.83.05-1.71.05-1.71v-.63l-2.87.53c1.67-1.12,3.35-2.24,5-3.42a1.77,1.77,0,0,1,.56-.09l1.11,0-.73-.75c1.3-1,2.57-2,3.78-3.06-1.34.9-2.75,1.75-4.2,2.57a4.87,4.87,0,0,1-1-2.1,1.89,1.89,0,0,1,.1-1l1-2.73-.36-.25a35.45,35.45,0,0,0-4.9-2.71l-1.74-1-1-1.4-.36-.5L178.14,12c-.11,0-.91-.23-.91-.23l-.55-.16c.13-.27.28-.53.4-.82l-1.26-.47V8.81l-.67.28-1.05.27.13,2.83a.86.86,0,0,0,.2.39c-4.75,6.9-15.05,6.87-23,10.78,3.26-6,10.13-9.47,15-15-6.45,4.75-15.54,8.16-18.8,17.25A49.58,49.58,0,0,1,143.42,29c-2.28-2.85-2.52-7.91-4.83-11.63l.22.09.62.37.07-.7s.15-1.73.13-1.77l1.53-.21s.82-.09,1-.09l3,4.43.44-.44L146.87,18s1.85-.72,1.86-.71a35.21,35.21,0,0,0,5.23-2l.4-.2-.67-2.86a2,2,0,0,1,.05-1A5.1,5.1,0,0,1,155.37,9l1-.79-1.23-.1c-1-.11-3.75-2.34-5.41-3.88a2.21,2.21,0,0,0,.16-.35.62.62,0,0,0-.19-.75c-.47-.35-.94.18-1.48.79a5.52,5.52,0,0,1-2.8,1.24c-1.32.34-2.69.71-2.82,2-.55,5-.92,6.07-.86,6.19-.29,0-2.81,0-3.23,1.12l-.42,2.16a8.66,8.66,0,0,0-1.6-1.6l.89-.32L137,11.85c-.38-1.09-2.89-1.23-3.18-1.25.06-.12-.28-1.24-.61-6.23-.09-1.25-1.44-1.67-2.75-2.07A5.56,5.56,0,0,1,127.66,1c-.52-.63-1-1.18-1.45-.85a.63.63,0,0,0-.22.75,3.65,3.65,0,0,0,.14.35c-1.72,1.47-4.52,3.59-5.56,3.65l-1.26.09,1,.83A5.41,5.41,0,0,1,121.81,8a2.11,2.11,0,0,1,0,1L121,11.77l.37.21a35.46,35.46,0,0,0,5.16,2.18l1.83.8,1.12,1.29.41.47,3.23-4.28.94.13,1.53.28V14.4a8.41,8.41,0,0,0-1.41-.7l-.44,1.08c4.18,1.87,4.48,6.23,5.6,10.69C130.28,17.74,116.53,19,109,11.36l-1.18.73c5.15,5.05,12.45,7.36,19.09,9.86-6.81.59-13.65.54-20.24-1.36.56-.95,1.57-3.15.32-5.2A22.93,22.93,0,0,1,105.39,18a3.81,3.81,0,0,0-1.71-2.54,5.23,5.23,0,0,0-4-.1s-1.73,3.07.14,5.34c-1.36.21-2.53.36-2.53.36s4.34,4.62,9.1,0l.22-.34-.31,1c8.28,2.93,17.23,2.91,25.78,2.35,3.53,1.62,6.58,3.58,8.56,6.43l-.14-.07c-1.11-.26-2.61,1.77-2.77,2-.08-.12-1.18-.45-5.54-2.88-1.09-.61-2.17.3-3.22,1.19a5.79,5.79,0,0,1-2.62,1.57c-.81.08-1.51.16-1.5.76,0,.31.21.48.5.59l.37.07c.29,2.25.53,5.76,0,6.68l-.62,1.11,1.21-.37a5.31,5.31,0,0,1,2.74-.06,2,2,0,0,1,.81.53l1.93,2.21.39-.2a36.37,36.37,0,0,0,4.63-3.16s1.65-1.1,1.65-1.12,1.69-.23,1.69-.23l.62-.1-1.85-5,.63-.72,1.07-1.15a8.2,8.2,0,0,0,.93.6c1.7,7.77.46,16.22-.21,24.92a33.72,33.72,0,0,0-13.2-8c-9.45-14-26.54-16-37.24-26.75l-1.09,1.35c9.5,10.17,23.9,13.86,32.24,23.56-5-1.32-10.08-2.26-15.35-4-7.07-2.7-13.21-9-20.37-13.43l1-.09.27-2.83c-.09-1.14-2.49-1.9-2.76-2,.09-.1,0-1.27.94-6.19.22-1.23-1-2-2.16-2.68a5.83,5.83,0,0,1-2.32-2c-.34-.74-.63-1.38-1.19-1.19a.63.63,0,0,0-.4.68,2.38,2.38,0,0,0,.06.37c-2,1-5.26,2.35-6.28,2.16l-1.26-.22.74,1A5.34,5.34,0,0,1,73.9,20a2,2,0,0,1-.23,1l-1.53,2.54.32.31c.6.5,1.62,1.36,2.56,2.09a23.45,23.45,0,0,0-4.35-.29l0,2.33a21.43,21.43,0,0,1,8.5,1.77c-3.11.39-6,1.24-9,1.42V32.3c4.73.18,9.32-1,13.46-.19,5.26,3.34,10,8.08,15.64,11.85-2.78.21-5.55.54-8.28.9-11.32-3.24-22.67-8.35-34.89-8.6.33-.46,2.07-3.13.57-5.59a22.24,22.24,0,0,1-1.58,2.6,3.73,3.73,0,0,0-1.72-2.54,5.19,5.19,0,0,0-4-.11s-1.72,3.08.14,5.34c-1.36.21-2.53.36-2.53.36s3.5,3.7,7.65,1.14a53.75,53.75,0,0,1,12.28,1.88,21.82,21.82,0,0,1-1.45,2.35,3.75,3.75,0,0,0-1.72-2.53,5.19,5.19,0,0,0-4-.11s-1.72,3.07.13,5.34c-1.35.21-2.52.35-2.52.35s3.33,3.55,7.35,1.35a35,35,0,0,0,10.39,2.42c-1.09.37-2.26.8-3,1.06l-.39.17.51,2.88a2.13,2.13,0,0,1-.09,1,5.23,5.23,0,0,1-1.75,2.12l-1,.72,1.25.21c1,.17,3.61,2.54,5.2,4.16a1.77,1.77,0,0,0-.19.33.63.63,0,0,0,.16.77c.46.37.95-.13,1.52-.71a5.51,5.51,0,0,1,2.86-1.1c1.35-.28,2.73-.57,2.94-1.81.79-4.93,1.24-6,1.19-6.14.27,0,2.8.1,3.27-1l.68-2.75-.29-.14c6.34-.49,12.59-1.21,18.47-.54,4.62,1.55,9.43,2.71,14,4.07-.15.21-1,1.3-1,1.35s-1.73,1-1.75,1a34.35,34.35,0,0,0-4.92,2.66l-.36.24,1,2.75a1.89,1.89,0,0,1,.09,1,5.11,5.11,0,0,1-1.37,2.34l-.88.93h1.28c1,0,4,1.8,5.88,3.1,0,.12-.09.24-.13.37a.64.64,0,0,0,.3.73c.53.27.91-.32,1.36-1a5.72,5.72,0,0,1,2.59-1.61c1.27-.53,2.58-1.07,2.55-2.33-.13-5,.09-6.15,0-6.25.28,0,2.77-.43,3-1.55l0-.93c5.37,2.32,9.93,5.53,12.76,10.89a57.32,57.32,0,0,0,.27,5.86c1.19,12.28,4.62,24.26,3.56,35.38a59,59,0,0,0-21.59-12.45c-7-8.39-16.5-17-29.15-17.68l-.19-.15h.83l.71.14L95.17,76s-.42-1.68-.46-1.71l1.38-.71.87-.4,4.29,3.2.26-.57s.71-1.51.71-1.56L103.73,73a32.27,32.27,0,0,0,4.32-3.59l.31-.3-1.57-2.49a1.86,1.86,0,0,1-.27-1,5.46,5.46,0,0,1,.82-2.61l.68-1.07-1.23.29c-1,.23-4.29-1-6.36-1.9v-.39a.6.6,0,0,0-.43-.64c-.56-.18-.83.48-1.15,1.23a5.58,5.58,0,0,1-2.22,2.09c-1.14.78-2.32,1.56-2,2.79,1.1,4.87,1.1,6,1.2,6.15-.27.09-2.63,1-2.69,2.11l.37,2.59C86.79,70.84,79.87,65.74,71.6,62.74a25.06,25.06,0,0,0-5.94-1.14l.65-.17-.17-2.76c-.28-1.11-2.78-1.48-3.06-1.51.07-.12-.18-1.27-.09-6.26,0-1.26-1.3-1.79-2.57-2.3A5.64,5.64,0,0,1,57.81,47c-.46-.68-.86-1.26-1.37-1a.63.63,0,0,0-.29.74,2.06,2.06,0,0,0,.12.35c-1.84,1.33-4.81,3.21-5.84,3.18H49.14l.89.9a5.55,5.55,0,0,1,1.34,2.4,2.27,2.27,0,0,1-.07,1l-1,2.75.38.25a35.29,35.29,0,0,0,4.94,2.61l1.77,1,.45.62a80,80,0,0,1-10.61.4c.56-.93,1.58-3.14.32-5.21A22.24,22.24,0,0,1,46,59.61a3.73,3.73,0,0,0-1.72-2.54,5.14,5.14,0,0,0-4-.1s-1.72,3.06.13,5.33c-1.35.21-2.52.35-2.52.35s3.88,4.13,8.32.7c8.54,1,17.11-1.54,24.89,1.35,6.65,2.59,12.8,7,18.49,11.68-9.71-.64-19.34-.8-28-4.51.21-.17.43-.34.65-.55,0,0,2.27-3,.62-5.68a23.57,23.57,0,0,1-1.69,2.52,3.75,3.75,0,0,0-1.72-2.53,5.19,5.19,0,0,0-4-.11s-1.72,3.07.14,5.33c-1.35.21-2.52.36-2.52.36s2.52,2.67,5.82,1.92h0a43.47,43.47,0,0,0,8.45,3.38c-3.52,1.1-6.82,2.43-10.37,2.8L57,80.49c5.46-.14,10.55-2.33,15.54-2.74,7.23,1.42,14.65,1.74,21.63,2.72C102.53,81.32,109,86,114.54,92,94.64,88,73.05,90.5,54,86.38c-2.63-7.26-9.69-10.84-15-15,4.12,5,9.89,8.87,12.18,14.33A58.79,58.79,0,0,1,38.56,81a42.21,42.21,0,0,1-5.42-7.65l-.19.07a4,4,0,0,0,.44-.38s2.27-3,.63-5.68a23.69,23.69,0,0,1-1.58,2.6,3.78,3.78,0,0,0-1.72-2.53,5.14,5.14,0,0,0-4-.12s-1.73,3.08.13,5.35c-1.36.21-2.53.36-2.53.36s3.62,3.82,7.86,1a45,45,0,0,0,3.31,6.85l-6.8-1L28.53,81,37,83.64a49.9,49.9,0,0,0,6.82,3.51c-.35.27-.72.56-.73.59l-1.94.44a32,32,0,0,0-5.48,1.17l-.42.14.25,2.92a1.92,1.92,0,0,1-.18,1c0,.06-.06.1-.09.15-4.65-.18-9.3.23-13.75,2.53l.37,1.09a23.49,23.49,0,0,1,11.94-2.09,3.51,3.51,0,0,1-.4.27L32.24,96l1.23.33c1,.25,3.28,2.78,4.71,4.55a52.77,52.77,0,0,0-7.94.61c.14-.52.87-3.67-1.4-5.46a22.06,22.06,0,0,1-.58,3,3.74,3.74,0,0,0-2.49-1.78,5.22,5.22,0,0,0-3.83,1.3s-.49,3.45,2,4.93c-1.23.68-2.3,1.25-2.3,1.25s4.82,2.38,7.82-1.92c15.77-2.36,30.72,3.73,46.45,6.26a109.86,109.86,0,0,1-31.26,0l-.37,2.31a125.41,125.41,0,0,0,22.64,1.94c-12,5.5-26.6,4.73-39.7,1.83l.14-.11s2.26-3,.62-5.68a22.32,22.32,0,0,1-1.59,2.6,3.77,3.77,0,0,0-1.71-2.53,5.19,5.19,0,0,0-4-.12s-1.73,3.08.14,5.34c-1.36.21-2.53.36-2.53.36s3.56,3.76,7.76,1.09c15.15,3.91,32.37,5.46,46.87-3,1.07-.08,2.12-.18,3.18-.29l-.56,1.1c-.32,1.1,1.63,2.69,1.85,2.87-.13.07-.51,1.17-3.13,5.41-.66,1.07.2,2.2,1,3.3a6,6,0,0,1,1.43,2.71c0,.82.08,1.52.67,1.55a.61.61,0,0,0,.61-.48,2.49,2.49,0,0,0,.09-.37c2.26-.17,5.76-.25,6.64.3l1.08.67-.31-1.23a5.31,5.31,0,0,1,.07-2.74,2.05,2.05,0,0,1,.6-.93l2.28-1.83-.19-.39a33.56,33.56,0,0,0-2.9-4.81l-1-1.71-.15-1.72-.07-.62L79,115.48c-.11-.08-.69-.66-.69-.66l-1.08-1.13.85-1.26c12.57-1.66,24.69-6.17,34.65-15.24a81,81,0,0,1,8.47,2.71h0c0,.14.08,1.71.12,1.74l-1.49.43-.93.23-3.61-4-.37.51s-1,1.35-1,1.4-1.75,1-1.75,1a33.89,33.89,0,0,0-4.91,2.69l-.37.25,1.08,2.74a2,2,0,0,1,.09,1,5.53,5.53,0,0,1-1.3,2.43l-.88.91h1.28c1,0,4,1.79,5.89,3.08a1.39,1.39,0,0,0-.12.36.61.61,0,0,0,.3.72c.52.27.91-.31,1.35-1a5.7,5.7,0,0,1,2.59-1.63c1.26-.53,2.56-1.09,2.53-2.34-.18-5,.06-6.14,0-6.27.28,0,2.77-.43,3-1.55l.09-2A58,58,0,0,1,142,113.15c.54,14,3.44,26.81,2.28,39.19l-.35,3.84c-8.59-7.26-19-10.84-29.58-12.6l.37-1.15c.15-1.14-2-2.41-2.29-2.55.12-.1.32-1.23,2.25-5.84.49-1.16-.53-2.14-1.52-3.09a5.8,5.8,0,0,1-1.83-2.46c-.17-.79-.32-1.49-.91-1.42-.32,0-.47.26-.53.57a2.54,2.54,0,0,0,0,.39c-2.2.53-5.66,1.15-6.61.74l-1.16-.5.48,1.17a5.3,5.3,0,0,1,.36,2.73,1.84,1.84,0,0,1-.44.88l-2,2.17.23.36a35.33,35.33,0,0,0,3.64,4.28l1.27,1.55.28,1.12c-5.76-.51-11.47-.64-16.88-.66-3.15-.15-6.3-.17-9.47-.1-11.65-4-24.32-9.12-37.28-12h0l-2.19-2a2,2,0,0,1-.53-.84,5.53,5.53,0,0,1,.06-2.74L40,123l-1.11.62c-.9.5-4.4.25-6.63,0a.66.66,0,0,0-.08-.38c-.09-.3-.26-.52-.59-.51-.58,0-.66.71-.75,1.51a5.8,5.8,0,0,1-1.56,2.64c-.22.26-.45.53-.66.8a76.42,76.42,0,0,1-9.71-2.93,26.54,26.54,0,0,0,5.3,3.23l-6.58,2.74,8.81-1.3,1.51.16a1.53,1.53,0,0,0,.17.55c2.4,4.37,2.72,5.49,2.84,5.56-.23.16-2.25,1.67-2,2.78l.53,1.18A190.26,190.26,0,0,0,4,135.8L3.84,137a179.61,179.61,0,0,1,33.78,7.17,94.15,94.15,0,0,1-11.51-.52l-8.79-1.38-.24,1.14,6.13,2.06C15.8,148,8.84,150.1,1.14,150.68l.06,1.18a74.63,74.63,0,0,0,16.41-2.44c-.06.19-.1.33-.1.34s-1.34,1.48-1.34,1.48a32.3,32.3,0,0,0-3.82,4.11l-.27.35L14,158a2,2,0,0,1,.38.9,5.33,5.33,0,0,1-.48,2.7l-.54,1.15,1.19-.44c.9-.33,3.91.31,6.07.92L18.43,163l-.22,2.34c2.74.26,5.5.51,8.26.71A69.72,69.72,0,0,1,14,168v1.18c8,.21,15.83-1.95,23.51-2.41A131.78,131.78,0,0,0,66.6,164.3C51.6,175.09,30.92,177,12.05,177l.06,1.15H17.6a8.19,8.19,0,0,0-.7,2c-.11-.09-1.26.08-6.22-.35-1.25-.12-1.85,1.17-2.45,2.4a5.7,5.7,0,0,1-1.76,2.51c-.7.42-1.31.77-1.06,1.31a.63.63,0,0,0,.7.34l.36-.09c1.19,1.93,2.83,5,2.74,6.09l-.11,1.27,1-.85a5.42,5.42,0,0,1,2.47-1.16,1.91,1.91,0,0,1,1,.13L16.22,193l.27-.35a34.44,34.44,0,0,0,2.94-4.78s1.07-1.68,1.07-1.71,1.44-.91,1.44-.91l.52-.33L18.73,181a8.32,8.32,0,0,1,.28-.93l.5-1.46,1.75.21.68.08-.22-.69v-.17c9.53-.19,19.23-1,28.43-3.59a1.48,1.48,0,0,0-.55,1c-.49,5-.86,6.09-.8,6.21-.28,0-2.8.08-3.22,1.15l-.51,2.79,1,.4.52.29c-6.09-.47-12.19-.76-18.19-1.18l-.11,1.16c15.4,1.5,31.2,2.12,45.62,7.31l-2.8.51c-4.11.52-8.28,1.3-12.44,2.05-6.07-5.4-15.11-3.85-21.26-4.31l-.53,1c7.13,1.13,13.19.21,18.42,3.89a95,95,0,0,1-20.47,1.89,40.21,40.21,0,0,1-10.5-1.7l-1,2.13q2.24.78,4.47,1.32c-2.43.63-4.84,1.36-7.21,2.15l.37,1.11a113.77,113.77,0,0,1,13.23-2.22,58.36,58.36,0,0,0,7.48.21l.63.84a5.29,5.29,0,0,1,1,2.56,1.93,1.93,0,0,1-.2,1l-1.39,2.58.33.29a33.43,33.43,0,0,0,4.56,3.26s1.59,1.17,1.62,1.18.2.41.41.78l-.49-.19c-7.36-5-16.7-7.56-25.41-5.58l.18,1.15a29.87,29.87,0,0,1,19.36,3.7c-8.17-.64-16.19.12-24.18-.12L18,214.26c6,.51,12.11.49,18.08.88-.27.4-.61.92-.61,1s-1.7,1-1.7,1A36,36,0,0,0,29,220l-.34.27,1.2,2.64a2,2,0,0,1,.14,1,5.41,5.41,0,0,1-1.2,2.46l-.84,1,1.26-.1c1-.07,4.11,1.61,6,2.82a2.22,2.22,0,0,0-.09.37.61.61,0,0,0,.32.72c.54.24.9-.37,1.31-1.07a5.77,5.77,0,0,1,2.51-1.73c1.25-.58,2.52-1.18,2.44-2.45,0-.41-.06-.79-.08-1.15,5.18-.81,10.87-2.06,14.53-6.61,14.34,1.27,28.19-2.5,41.85-6a34.13,34.13,0,0,1-12.82,13,54,54,0,0,0-21.67-1.1,1.35,1.35,0,0,0-.33-.19,5.19,5.19,0,0,0-4-.12s-1.72,3.08.13,5.34c-1.36.21-2.53.36-2.53.36s2.91,3.09,6.57,1.7a32.94,32.94,0,0,0,12,.25c-1.06.74-2.35,1.74-3.06,2.28L72,234l1.36,2.61a1.91,1.91,0,0,1,.19,1,5.29,5.29,0,0,1-1,2.55l-.77,1L73,241c1-.15,4.21,1.34,6.2,2.41a2.2,2.2,0,0,0-.07.37c0,.32.07.58.37.69.55.21.87-.41,1.25-1.14a5.66,5.66,0,0,1,2.38-1.9c1.2-.66,2.43-1.36,2.26-2.61-.71-4.94-.61-6.11-.69-6.22.27-.07,2.71-.75,2.85-1.88l-.18-2.83-.82-.11A37.6,37.6,0,0,0,103.08,211c2.43-.6,4.86-1.18,7.29-1.69-.18.44-.4,1-.4,1l-1.46,1.37a35.38,35.38,0,0,0-4.14,3.79l-.29.33,1.69,2.4a1.94,1.94,0,0,1,.31.94,5.21,5.21,0,0,1-.69,2.64l-.63,1.11,1.22-.34c1-.28,4.34.77,6.46,1.57a2.54,2.54,0,0,0,0,.39.6.6,0,0,0,.44.62c.58.14.82-.52,1.09-1.28a5.63,5.63,0,0,1,2.12-2.21c1.11-.81,2.25-1.66,1.91-2.87-1.35-4.82-1.4-6-1.5-6.09.26-.1,2.58-1.1,2.58-2.23l-.51-2.64a68.55,68.55,0,0,1,18.21-.42,162.53,162.53,0,0,0,.29,33.37,128.46,128.46,0,0,1,.39,19.81c-.47,4.9-1.47,11.41-3.39,14-3.23,4.3-7.77,5.47-10.65,9.57l-2.91.2a6.89,6.89,0,0,0,3.13-2.38s1.84-3.25-.16-5.71a23.53,23.53,0,0,1-1.2,2.78,3.77,3.77,0,0,0-2-2.27,5.26,5.26,0,0,0-4,.44s-1.28,3.28.86,5.28c-1.32.39-2.45.7-2.45.7a7.42,7.42,0,0,0,3.08,1.35c-31.13,2.12-79.47,5.35-84.23,5.35v2.37H260.55v-2.37c-4.5,0-48-2.88-79.48-5.71l-1.35-.51c2.29-1.82,1.23-5.19,1.23-5.19a5.18,5.18,0,0,0-4-.73,3.71,3.71,0,0,0-2.2,2.12,22.54,22.54,0,0,1-1-2.86c-2.16,2.3-.56,5.68-.56,5.68a10,10,0,0,0,.64.82l-3.21-.31c-2.26-3.15-6.8-4.32-10-8.62-2.75-3.68-3.59-15.56-3.83-20a130.65,130.65,0,0,0-1.73-15.66c-1.76-11-2.78-20-2.39-30,10.93,1.05,22.23,2.71,33.59,3.52a151.65,151.65,0,0,0,19.88,8.76h-1l-.66,2.76c0,1.14,2.24,2.21,2.5,2.33-.11.09-.21,1.25-1.73,6-.39,1.19.71,2.09,1.77,3a5.66,5.66,0,0,1,2,2.28c.24.78.45,1.45,1,1.33.31-.06.44-.29.48-.61a2.29,2.29,0,0,0,0-.37c2.15-.73,5.51-1.66,6.5-1.32l1.21.38-.59-1.13a5.4,5.4,0,0,1-.58-2.67,1.69,1.69,0,0,1,.36-.92l1.77-2.33-.28-.34a34.34,34.34,0,0,0-4-4l-1.4-1.42-.2-.58a105.33,105.33,0,0,0,29.45,4.5v-1.17a106.42,106.42,0,0,1-33.05-6.57q16.55.44,33,2c3.53,3.25,7.66.39,7.66.39s-1.11-.39-2.4-.87c2.28-1.83,1.23-5.2,1.23-5.2a5.18,5.18,0,0,0-4-.73A3.74,3.74,0,0,0,243,218a22.54,22.54,0,0,1-1-2.86c-2.16,2.31-.56,5.68-.56,5.68l.27.35Q223,219,204.24,218.24c-4.09-1.68-8.11-3.57-12-5.62a118.46,118.46,0,0,0,30.58-2.31c5.45.28,10.85.86,16.43.93-4-1-8-1.75-12.09-2.35,2.1-.65,4.2-1.42,6.27-2.28a1.94,1.94,0,0,1,.43.27c.62.52,1.16,1,1.58.57a.61.61,0,0,0,.08-.77c-.05-.11-.14-.21-.2-.32.23-.29.49-.6.76-.91.64-.3,1.28-.6,1.91-.92,6.85-2.35,14.54,1.17,22.14,1.18-6.71-1-13.44-4.64-20.85-3.42.41-.23.83-.44,1.24-.66l.82-.21-.2-.11a50.91,50.91,0,0,1,9-3.4h0l-.61.89,1.94,2.06c.93.67,3.07-.66,3.31-.81,0,.13.93.86,4,4.75.79,1,2.13.54,3.43.1a5.82,5.82,0,0,1,3-.45c.78.23,1.46.41,1.67-.13a.62.62,0,0,0-.24-.75l-.33-.2c.58-2.2,1.66-5.54,2.49-6.19l1-.8-1.27-.13a5.12,5.12,0,0,1-2.54-1,2,2,0,0,1-.58-.8l-1-2.77-.43,0a34,34,0,0,0-5.48,1.17l-1.94.4-1.47-.35-.62-.14-.1,3.4a45.15,45.15,0,0,0-14.86,4,3.94,3.94,0,0,1-1.11-1.36,1.75,1.75,0,0,1-.19-1l.26-2.93-.41-.13a33.88,33.88,0,0,0-5.46-1.2l-1.53-.35c7.81-1.17,15.68-2.43,23.51-4.27l-1-2.09c-9,1.78-18.56,2.77-28.19,3.84,4.28-3,9.56-3.26,14.76-6.11-5.66,1.31-14.06,1.17-19.2,6.63-4.13.48-8.28,1-12.41,1.66.72-.41,3.12-2,2.92-4.67a24.76,24.76,0,0,1-2.57,1.56,3.76,3.76,0,0,0-.38-3,5.25,5.25,0,0,0-3.56-2s-2.91,2-2.3,4.82c-1.29-.44-2.39-.84-2.39-.84s1.27,4.36,5.49,4.55c-11.9,2-23.65,5.14-34.63,11.05-.11-.11-1.21-1.21-1.26-1.21l.82-1.33s.45-.69.54-.78l5.31.5-.06-.64s-.18-1.66-.2-1.69.64-1.9.64-1.9a35.62,35.62,0,0,0,1.85-5.32l.1-.42-2.62-1.3a2.1,2.1,0,0,1-.71-.68,5.2,5.2,0,0,1-.65-2.67v-1.26l-.9.88c-.75.72-4.2,1.39-6.43,1.69a3.54,3.54,0,0,0-.16-.34.61.61,0,0,0-.7-.35c-.57.16-.46.85-.36,1.66a5.59,5.59,0,0,1-.82,2.95c-.58,1.24-1.19,2.53-.32,3.45,3.47,3.59,4,4.59,4.2,4.63-.18.22-1.77,2.19-1.22,3.2l1,1.18c-5.4-.84-10.79-1.7-16.12-2.41.17-1.75.39-3.55.64-5.4.39-11.82,1.82-22.85,2.49-34.76a100.92,100.92,0,0,1,21.21.18l-.64.17.16,2.83c.29,1.12,2.77,1.49,3,1.53-.07.12.16,1.27,0,6.27,0,1.25,1.29,1.79,2.54,2.3a5.76,5.76,0,0,1,2.61,1.6c.44.69.85,1.27,1.36,1a.63.63,0,0,0,.29-.72,2.26,2.26,0,0,0-.11-.37c1.85-1.31,4.82-3.15,5.86-3.13h1.26l-.88-.92a5.51,5.51,0,0,1-1.33-2.38,2.11,2.11,0,0,1,.08-1l1.06-2.75-.37-.24a36,36,0,0,0-4.94-2.64l-1.1-.6c4.31.5,8.64,1,13,1.41,13.27,6.07,27.37,11.43,41.92,14.18l.1.19.17-.14A106,106,0,0,0,262,180.71l.05-1.18a107.83,107.83,0,0,1-18.88-2h0l1.93-.5a35.1,35.1,0,0,0,5.43-1.37l.4-.15-.34-2.91a2,2,0,0,1,.15-1,5,5,0,0,1,1.62-1.83,74.27,74.27,0,0,0,11.36-.24l-.54,2.42c0,1.15,2.23,2.23,2.48,2.35-.1.09-.19,1.25-1.75,6-.38,1.19.73,2.09,1.79,2.95a5.75,5.75,0,0,1,2,2.29c.24.78.46,1.46,1,1.34.31-.07.43-.3.49-.62v-.38c2.14-.71,5.52-1.63,6.51-1.3l1.2.39-.58-1.12a5.24,5.24,0,0,1-.58-2.69A2.05,2.05,0,0,1,276.14,180.26ZM82.4,28.25l1.36-1.1.88.36,1.42.65-.38,1.74V30C84.59,29.37,83.51,28.78,82.4,28.25Zm2.74,17.34c-1.33.15-2.66.28-4,.38L81,45.65l-.38.36a38.41,38.41,0,0,1-14.19-1.29c.28-.39,1.94-2.91.74-5.31C73.23,41,79.14,43.41,85.14,45.59Zm1.11,4.47-1.55.13h-1l-1-1.6c1.23,0,2.45-.12,3.66-.2,0,.44-.12,1.63-.09,1.67Zm40.48,4.59-1.5.42s-.79.21-.93.22l-2.75-3.06c1.76.54,3.47,1.12,5.12,1.77a4.81,4.81,0,0,0,.08.65Zm-66.8,7L62.28,59l.92.2,1.5.41-.09,1.78v.22c-1.56,0-3.11,0-4.66.06ZM50.14,89.42v.07s-.39,1.69-.37,1.73H47.2L45.68,88C47.14,88.5,48.63,89,50.14,89.42Zm-2.64,3.7c.29,0,2.77.37,3.35-.62l.92-2.63a84.34,84.34,0,0,0,9.85,1.9C57.15,94.58,52.2,94.88,47,94.56a12,12,0,0,0,.45-1.44Zm36.64,14.19c-14.3-.43-28.53-5.81-43.18-6.4a13.82,13.82,0,0,1,1.71-.26c1.37-.15,2.77-.3,3.08-1.52.27-1,.51-1.9.72-2.62,6.54.65,13,.4,18.81-4.33,9.32,1,18.75,1,27.61,2a109.86,109.86,0,0,1,13.65,1.66A56.12,56.12,0,0,1,84.14,107.31ZM64.44,225.16l1.31-.07c-.24.4-.53.85-.85,1.29A6.65,6.65,0,0,0,64.44,225.16Zm1.26,4.42.16-.13A6.15,6.15,0,0,0,67,225.06a51.81,51.81,0,0,1,14.87,1.75c-.62.27-1.24.52-1.87.75l-.36-.32-.31.54h0A33.36,33.36,0,0,1,65.7,229.58Zm20-1.48s.28,1.73.31,1.76l-1.43.59s-.77.29-.91.32l-1.39-1.23c1.16-.43,2.3-.92,3.42-1.46Zm39-74.72-3.63,1.69c-.12-.06-.77-.56-.77-.56l-1.21-1s.29-.54.51-1c.81,0,1.62-.1,2.43-.13l2.64,1Zm-13.61-12.1c.12.07.79.54.79.54l1.25.94a3.81,3.81,0,0,0-.29.57c-1.55-.23-3.1-.43-4.65-.59ZM89,147.59a158.36,158.36,0,0,1,18.45,1.47c-12.56,2.47-24.88,6.75-36.6,10.37-1.35.39-2.7.74-4.06,1.07a13.83,13.83,0,0,1,1.6-.77c1.26-.53,2.57-1.07,2.53-2.33-.17-5,.07-6.15,0-6.27.3,0,2.77-.44,3-1.56l.12-2.4c5-.07,9.93,0,14.93.42Zm-16.58-.39a13,13,0,0,0,.1,1.47L71,149.1s-.8.21-.93.23l-1.83-2Zm-40.82-7.07s-.85-1.5-.91-1.51,1.13-1.06,1.13-1.07.62-.56.73-.63l5,1.88.11-.63s.26-1.65.26-1.69S39,134.81,39,134.81A18.94,18.94,0,0,0,41,132c10,2.49,19.38,6.3,29.29,10.24-8.75.54-17.5,1.43-26.1,1.56-4.09-1.41-8.3-2.59-12.65-3.62Zm-7.12,7.48c.19.48.47,1.16.49,1.18l-1.28.87s-.68.46-.81.52l-2.53-1.42c1.37-.38,2.78-.76,4.1-1.15Zm-2,15.74a1.53,1.53,0,0,1,.11-.39,5.3,5.3,0,0,1,1.93-2.36c1-.91,2.1-1.84,1.67-3q-.18-.48-.33-.93a70.31,70.31,0,0,1,21.58,6.78,194.75,194.75,0,0,1-25-.1Zm2.86-8.18c-.93-2.7-1.05-3.46-1.13-3.53.25-.14,2.48-1.3,2.39-2.44l-.53-1.92c13.18,1.54,26,.67,38.77.16l-1.44.81a32.17,32.17,0,0,0-4.92,2.69l-.36.25,1.09,2.73a2.25,2.25,0,0,1,.08,1A5.41,5.41,0,0,1,58,157.34l-.87.92h1.27c1,0,3.81,1.65,5.68,2.93A111.73,111.73,0,0,1,52.28,163c-8.43-4.06-17.59-7.09-27-7.78ZM46.7,185.79s.13-1.74.1-1.78l1.54-.22s.82-.11,1-.11l2.19,3.17c-1.61-.16-3.22-.31-4.83-.43Zm-3.85,15.83h-.31l1.2-.05a2.84,2.84,0,0,1-.92.05Zm-.05,14.2c.05.51.13,1.33.16,1.35l-1.47.49s-.79.25-.92.27l-2.65-2.67c1.61.13,3.22.32,4.85.56Zm-1.22,7.7c-.16-3-.07-3.73-.13-3.82.29,0,2.75-.56,3-1.68v-2h.28a58.89,58.89,0,0,0,8.29,1.8c-3.27,3.38-7.23,4.39-11.47,5.7Zm8.91-9.14,3-2.56a7.81,7.81,0,0,1,.89.33l1.43.62-.34,1.74-.06.43c-1.69-.11-3.27-.29-4.95-.56Zm5.72.6.89-.12.19-2.82c-.13-1.15-2.54-1.85-2.82-1.92.08-.11,0-1.27.75-6.21.18-1.25-1-2-2.23-2.62-.34-.2-.67-.39-1-.6,6.6-.88,13.15-2.13,19.57-2.7,12.72-2.3,25.28.83,36.8,6.17C90.42,208.6,73.14,215.81,56.14,215Zm31.12-21.74v.15q-2.46-.24-5-.27l3-2.57.89.33,1.42.61-.39,1.75Zm6.43-.89,1.53-.24s.82-.09.95-.09l2.4,3.44c-1.66-.44-3.34-.83-5-1.16v-.18s.12-1.73.09-1.77Zm23.16,15.76s.48,1.68.54,1.69l-1.36.78s-.72.4-.84.45L112,208.85c1.62-.33,3.24-.62,4.85-.88Zm21.72-12.79q-.62,2.76-1.08,5.76a78.54,78.54,0,0,0-21.09,1.32,95.33,95.33,0,0,0-16.6-6.59c.3-.31,1-1.07,1-1.1l1.85-.74a33.37,33.37,0,0,0,5.23-2l.38-.2-.69-2.85a1.89,1.89,0,0,1,0-1,5.32,5.32,0,0,1,1.6-2.21l1-.8-1.27-.13c-1-.1-3.76-2.3-5.43-3.83,0-.11.13-.24.16-.35a.6.6,0,0,0-.2-.75c-.47-.35-.94.18-1.48.8a5.39,5.39,0,0,1-2.77,1.27c-1.32.36-2.68.73-2.81,2-.5,5-.87,6.08-.81,6.2-.28,0-2.81.08-3.2,1.15L91.92,194c-1-.17-2-.33-3-.45l.22-2.79c-.14-1.15-2.56-1.84-2.83-1.92.08-.11,0-1.27.76-6.21.2-1.25-1-2-2.23-2.63a5.72,5.72,0,0,1-2.37-1.93c-.35-.73-.67-1.36-1.23-1.16a.61.61,0,0,0-.37.69,2.38,2.38,0,0,0,.06.37c-2,1.06-5.19,2.51-6.22,2.34l-1.25-.19.75,1a5.29,5.29,0,0,1,1,2.55,2.17,2.17,0,0,1-.21,1l-1.39,2.59.32.28a34.13,34.13,0,0,0,4.56,3.27L80.14,192s.37.71.61,1.14H79.48C71,189.63,62.19,188,53.3,187c.3-.31.6-.64.61-.66l1.85-.74a36.35,36.35,0,0,0,5.23-2l.38-.2-.7-2.85a2.11,2.11,0,0,1,0-1,5.27,5.27,0,0,1,1.62-2.22l1-.79L62,176.4c-1-.11-3.75-2.31-5.43-3.84a2.52,2.52,0,0,0,.15-.34A55.93,55.93,0,0,0,72.35,163c15.49-4.3,29.85-9,45.46-10.29l-.41,1.14c-.17,1.14,1.95,2.47,2.21,2.61-.12.1-.34,1.23-2.42,5.78-.51,1.15.48,2.16,1.45,3.14a5.75,5.75,0,0,1,1.76,2.5c.16.8.28,1.49.87,1.45.31,0,.47-.25.55-.55v-.39c2.2-.46,5.67-1,6.61-.55l1.16.52-.46-1.18a5.29,5.29,0,0,1-.28-2.73,1.88,1.88,0,0,1,.46-.87l2-2.12-.24-.37a34.21,34.21,0,0,0-3.49-4.38l-1.24-1.58s-.13-.63-.25-1.1a41.69,41.69,0,0,1,16.59,11.85c-1.3,9.71-3.09,19.82-4.07,29.49ZM211.29,223l-3,1.84c-.12,0-.83-.48-.83-.48l-1.32-.83c.05,0,.61-1.65.61-1.65l.11-.34C208.33,222,209.81,222.45,211.29,223Zm43.1-24.74c-.1.07-.84.43-.84.43l-1.42.66s-1-1.43-1-1.43l-.08-.09c1.14-.31,2.28-.59,3.43-.85Zm-26.47-4.4-1.37,2.79H224l-.37-1.75-.11-.45Zm-4.76.71-.21.17-.94.55.92,2.69c.58,1,3.07.67,3.35.63,0,.13.5,1.18,1.74,6a1.54,1.54,0,0,0,.24.5c-15.87,4.64-32.59,3.43-49.25,1.11,13.79-6.74,28.77-9.37,44.13-11.69Zm29.22-80.72-.38,1.6c0,1.15,2.22,2.22,2.5,2.35a12.28,12.28,0,0,0-.46,1.68c-5.75.64-11.24.27-15.68-2.51a89.67,89.67,0,0,0,14-3.16Zm-10-19.32c.22.7.5,1.54.77,2.3a32.42,32.42,0,0,1-5.25-1.09c1.5-.39,3-.8,4.47-1.25Zm-9.24,2.13A33.42,33.42,0,0,0,244.08,99c.15.42.62,1.74.63,1.75s-.17,1.71-.17,1.71l-.06.63,5.31-.6c.09.09.55.78.55.78s.83,1.3.85,1.31-1.25,1.25-1.25,1.25l-.48.51.48.16c-7.81,1.09-15.8,2.11-22.39,7.92-16.69,0-33.53-4.14-49.73-11,7.86-1.62,16.1-2.56,23.37-3.44C211.54,98.69,222.53,98.52,233.14,96.61Zm-23.67-1.82-5.42.24a1,1,0,0,1,.09-.33,32,32,0,0,1,5.36.09Zm17.67-28.44-1.62,2.48-1-.07-1.55-.2-.16-1.76v-.11A28.51,28.51,0,0,0,227.14,66.35Zm-5.39.32-.56.24.58,2.78c.45,1.07,3,1,3.25,1-.05.12.23.93.71,4.21-11.59,3.34-23.59,1-34.72-4.56,8-1.27,16-2.64,23.61-5.12a22.76,22.76,0,0,0,7.16,1.4ZM201,65.06c2.61-5.86,5.07-11.19,10.52-14.28l1.37,2.46c.74.88,3.14.12,3.4,0,0,.15.69,1.07,2.76,5.62a1.94,1.94,0,0,0,1.83,1A90.29,90.29,0,0,1,201,65.06ZM216.17,51.3l-.93.22-1.52.27L213,50.16,213,50A24.17,24.17,0,0,1,217,48.28ZM177.06,34.16c.21.35.42.71.6,1.06l-.74.32c-2.41,1-4.85,2-7.3,2.88A28.62,28.62,0,0,1,177.89,29c-.41.52-.88,1.12-1.43,1.8C175.67,31.74,176.37,33,177.06,34.16Zm3.48-11.45A4.36,4.36,0,0,1,182.37,24l-.76.44-.24-.31s-.94-1.25-1-1.25a.66.66,0,0,0,.17-.12Zm-4.84-9.36a8.84,8.84,0,0,0,1.68.44c-.07.12.15,1.26,0,6.26,0,1,.82,1.57,1.82,2l-.41.61c-.37.83.61,2.12,1.15,2.75a32.47,32.47,0,0,0-10.54,9.66l-.44-.92c-.46-.94,0-4.43.41-6.67h.38c.3-.09.52-.24.54-.56,0-.59-.66-.72-1.46-.85a5.71,5.71,0,0,1-2.53-1.71c-1-.95-2-1.93-3.16-1.38-4.47,2.17-5.6,2.42-5.68,2.54a9,9,0,0,0-1.05-1.33c6.79-2.57,14.89-4.3,19.29-10.84ZM152.38,25.89v.24l.63-.3s1.54-.78,1.56-.84a13.52,13.52,0,0,1,1,1.2s.51.64.58.77L154,31.87l.61.13s1.63.36,1.67.35l1.6,1.2a34,34,0,0,0,4.43,3.4l.37.23,2-2.09a2,2,0,0,1,.87-.48,5.31,5.31,0,0,1,2.71.22l1,.35a23.36,23.36,0,0,0-2.09,4.11c-7.1,2.68-14.31,5.3-21.3,8.6A62.25,62.25,0,0,0,145.14,35C146,30.37,148.74,27.77,152.38,25.89Zm-.24,23.35v1.41c-.11.07-.86.43-.86.43s-1.39.64-1.41.66a10.43,10.43,0,0,0-.75-1A32.68,32.68,0,0,1,152.14,49.24ZM146,70.86c-1-6-.55-12.17-.23-18.47.59-.32,1.2-.61,1.79-.92l1.78,1.88c.92.67,3.06-.65,3.3-.81,0,.15.94.88,4,4.77.79,1,2.13.54,3.43.11a5.62,5.62,0,0,1,3-.45c.79.22,1.46.42,1.69-.13a.6.6,0,0,0-.25-.74,2.2,2.2,0,0,0-.32-.21c.58-2.19,1.66-5.54,2.49-6.2l1-.79-1.27-.13a5.22,5.22,0,0,1-2.54-1,1.9,1.9,0,0,1-.57-.8l-.79-2.29c4-1.66,8-3.29,12-5,3.91,0,8,0,12-.22l.42.35v-.37c6.21-.34,12.37-1.27,18-4a27.11,27.11,0,0,0,.82,4.72l.31,2-.48,1.64-.17.6,5.33.42c.06.11.39.87.39.87s.58,1.43.58,1.44l-1.46,1-.55.39.62.36.21.17c-6.43,3.31-9.86,10.61-12.6,16.47-8.12,1.17-16.45,2-24.67,3.52,3.3-4.27,4.26-10,6.27-14.68l.94,1.22c.88.75,3.13-.36,3.39-.49,0,.14.84,1,3.57,5.14.68,1.05,2.06.75,3.4.45a5.57,5.57,0,0,1,3-.16c.76.31,1.42.55,1.69,0a.66.66,0,0,0-.17-.77,2.18,2.18,0,0,0-.31-.22c.79-2.13,2.2-5.36,3.07-5.93l1.06-.7L198,52.65a5.41,5.41,0,0,1-2.45-1.22,2,2,0,0,1-.49-.85l-.68-2.85h-.44a34.55,34.55,0,0,0-5.56.63l-2,.21-1.6-.58-.26-.08A10.35,10.35,0,0,1,187,46.74l-.4-1.1c-11.6,4-9.65,19-17.47,24.22a73.34,73.34,0,0,0-21.85,8.36c-.53-2.44-1-4.91-1.29-7.36Zm34.34-18.17a12.37,12.37,0,0,1,3.79-4.49l-.64,5c-.1.06-.88.36-.88.36s-1.47.49-1.47.51-.6-1-.84-1.38Zm-31.95,31c11.07-8,24.76-10.46,38.79-12.68,5.22,1.84,10.36,4.8,16,6.38L202,79.65c-.34,1.09,1.57,2.73,1.79,2.91-.11.06-.53,1.16-3.24,5.34-.68,1.06.15,2.21,1,3.32A5.68,5.68,0,0,1,202.79,94a4.7,4.7,0,0,0,.13,1.12c-17.69.83-35.62,2.41-51.9,13.26.64-8.61-1-16.75-2.66-24.63Zm8.12,71.92,0-2.9c.23-13.5-3.22-26.1-4.72-38,3.6-3.61,8.64-6.24,14.37-8.24l-.68,1.55c-.27,1.12,1.77,2.6,2,2.77-.12.07-.45,1.2-2.84,5.57-.6,1.1.31,2.19,1.21,3.24a5.89,5.89,0,0,1,1.56,2.63c.09.81.17,1.51.75,1.51.32,0,.49-.21.59-.52a1.61,1.61,0,0,0,.07-.37c2.23-.3,5.73-.56,6.64,0l1.1.61-.36-1.21a5.34,5.34,0,0,1-.07-2.75,1.83,1.83,0,0,1,.53-.83l2.18-2-.2-.39a34.87,34.87,0,0,0-3.17-4.64L174.38,110l-.25-1.7-.1-.61-5,1.88-.72-.63-1.17-1c.05,0,.91-1.52.91-1.52l.33-.6c.59-.18,1.16-.37,1.76-.54a131.79,131.79,0,0,0,29.42,9.94c4.92,2.22,9.95,4.41,15,6.53l.39-1.12L207,116.49a111.6,111.6,0,0,0,27.69.81c5.85,4.43,12.27,5,18.69,4.15-.2.64-.43,1.39-.71,2.26a1.74,1.74,0,0,0,.39,1.66,172.87,172.87,0,0,1-18.5,6.42c-12.68,1.87-24,8.2-35.24,14,.86-.52,3-2,2.76-4.56a24.68,24.68,0,0,1-2.57,1.55,3.72,3.72,0,0,0-.39-3,5.25,5.25,0,0,0-3.55-2s-2.93,1.95-2.3,4.82c-1.3-.44-2.41-.84-2.41-.84s1.77,6.07,8,4.23c-8.42,4.34-16.81,8.36-25.7,10a97.83,97.83,0,0,0-16.68-.37Zm24.3,9.4-.93-.22-1.5-.43.12-1.76v-.21l4.25.45Zm82.62-12,1.5-.38.94-.2.05.07c-.81.39-1.63.76-2.45,1.11a3.81,3.81,0,0,0-.08-.59Zm3.65,2.39.63-.79.55.65ZM265.37,144a2,2,0,0,0-.07.43c0,5-.27,6.13-.19,6.26-.29,0-2.8.34-3.1,1.45l-.18,2.15a112.21,112.21,0,0,1-30.27,6.09C242.32,153.31,253.14,147.13,265.37,144Zm-40.12,13.7.91.28,1.46.5s-.13,1-.18,1.5l-1,.65c-1.4,0-2.8.08-4.2.1ZM236.14,176c.08-.36.33-1.6.3-1.64H239l1.41,2.68C238.9,176.68,237.49,176.33,236.14,176Zm2.48-3.61c-.27,0-2.78-.28-3.33.74l-.76,2.45a183.89,183.89,0,0,1-28-10.4l4.21.11c6.36.08,12.79-.08,19.19-.64a65.37,65.37,0,0,0,9.9,3.31c-.91,3.5-1.28,4.32-1.26,4.45Z" style="fill:#a57c37"/><path d="M15.32,131c5.61-3.5,2.22-8.87,2.22-8.87s-.45,1.14-1,2.44c-1.73-2.37-5.09-1.52-5.09-1.52a5.26,5.26,0,0,0-.88,4,3.76,3.76,0,0,0,2,2.31,24.33,24.33,0,0,1-2.9.9C11.9,132.44,15.32,131,15.32,131Z" style="fill:#a57c37"/><path d="M109.24,11.17S112,8.62,110.8,5.68a25.11,25.11,0,0,1-2,2.25,3.76,3.76,0,0,0-1.27-2.75,5.23,5.23,0,0,0-4-.79s-2.21,2.74-.76,5.28c-1.37,0-2.55-.07-2.55-.07S103.79,15,109.24,11.17Z" style="fill:#a57c37"/><path d="M18.66,207.05a24.54,24.54,0,0,1-1.58,2.59,3.69,3.69,0,0,0-1.72-2.53,5.14,5.14,0,0,0-4-.12s-1.73,3.07.13,5.34c-1.36.21-2.53.36-2.53.36s4.35,4.63,9.1,0C18,212.71,20.31,209.75,18.66,207.05Z" style="fill:#a57c37"/><path d="M25.31,195.46s2.27-3,.62-5.67a24.54,24.54,0,0,1-1.58,2.59,3.71,3.71,0,0,0-1.71-2.52,5.19,5.19,0,0,0-4-.12s-1.73,3.08.13,5.34c-1.36.2-2.53.35-2.53.35S20.55,200.06,25.31,195.46Z" style="fill:#a57c37"/><path d="M10.79,143.35s-1,.77-2.07,1.62c-.33-2.91-3.67-3.86-3.67-3.86a5.28,5.28,0,0,0-2.72,3,3.77,3.77,0,0,0,.62,3A24.66,24.66,0,0,1,0,146.45c.79,3.07,4.49,3.5,4.49,3.5C11.08,149.69,10.79,143.35,10.79,143.35Z" style="fill:#a57c37"/><path d="M169.39,98.41s3.36-1.6,3.12-4.76a24.68,24.68,0,0,1-2.57,1.55,3.76,3.76,0,0,0-.38-3,5.19,5.19,0,0,0-3.55-2s-2.93,2-2.3,4.81c-1.3-.43-2.41-.83-2.41-.83S163.07,100.32,169.39,98.41Z" style="fill:#a57c37"/><path d="M213.73,125.69c0,.13.5,1.17,1.75,6,.31,1.22,1.72,1.38,3.08,1.53a5.5,5.5,0,0,1,2.93.83c.63.52,1.17,1,1.59.56a.59.59,0,0,0,.06-.78,3.21,3.21,0,0,0-.19-.31c1.42-1.77,3.78-4.37,4.78-4.63l1.23-.31-1.09-.64a5.21,5.21,0,0,1-1.92-2,1.74,1.74,0,0,1-.21-1l.26-2.91-.41-.14a35.33,35.33,0,0,0-5.47-1.19l-2-.44-1.33-1.06-.5-.39-2.35,4.82-1,.06H211.4L211,122l-.16-.68-.56.46-.94.55.94,2.68C211,126,213.45,125.72,213.73,125.69Z" style="fill:#a57c37"/><path d="M97.74,283.09s2.35-2.91.79-5.66A23.56,23.56,0,0,1,96.87,280a3.77,3.77,0,0,0-1.64-2.58,5.24,5.24,0,0,0-4-.23s-1.81,3,0,5.34c-1.35.17-2.52.29-2.52.29S92.84,287.55,97.74,283.09Z" style="fill:#a57c37"/><path d="M70.65,101.47a3.72,3.72,0,0,0-.39-3,5.21,5.21,0,0,0-3.55-2s-2.92,1.93-2.3,4.8c-1.3-.43-2.39-.83-2.39-.83s1.76,6.11,8.07,4.21c0,0,3.37-1.61,3.13-4.78A25.09,25.09,0,0,1,70.65,101.47Z" style="fill:#a57c37"/><path d="M173.9,80.56c-.07.12.28,1.24.69,6.21.1,1.26,1.46,1.66,2.77,2a5.77,5.77,0,0,1,2.78,1.36c.53.63,1,1.17,1.47.84a.6.6,0,0,0,.2-.74,1.94,1.94,0,0,0-.15-.36c1.71-1.5,4.48-3.65,5.52-3.73l1.25-.11-1-.81A5.33,5.33,0,0,1,185.87,83a1.89,1.89,0,0,1,0-1l.76-2.83-.39-.22a34.84,34.84,0,0,0-5.19-2.11L179.22,76l-1.13-1.27-.43-.46-3.14,4.34c-.13,0-.94-.12-.94-.12L172,78.24,172,76.47v-.69l-.63.35-1,.38.46,2.8C171.14,80.42,173.61,80.54,173.9,80.56Z" style="fill:#a57c37"/><path d="M198.19,103a3.72,3.72,0,0,0-1.43,2.66,26.59,26.59,0,0,1-1.85-2.38c-1.35,2.85,1.22,5.58,1.22,5.58,5.21,4.07,9-1,9-1s-1.18,0-2.54-.09c1.61-2.45-.43-5.33-.43-5.33A5.21,5.21,0,0,0,198.19,103Z" style="fill:#a57c37"/></g><g id="since-2008"><path d="M33.49,345.2h-.66v-7.32h.7s0,6,6.08,6c2.35,0,4.13-1.53,4.13-3.66,0-1.53-1.52-2.83-3.8-4l-3.17-1.63a6.39,6.39,0,0,1-3.67-5.49c0-2.76,2.28-5,5.49-5a6.18,6.18,0,0,1,4,1.36,2.83,2.83,0,0,0,1-1.53h.66v7.32h-.69c-.24-2.66-1.23-5.82-5.06-5.82a3,3,0,0,0-3.2,2.78,1.62,1.62,0,0,0,0,.22c0,1.73,1.16,2.62,4,4.12l3.14,1.63c2.55,1.3,3.48,3.22,3.48,5a6,6,0,0,1-6,6h-.33c-2.51,0-4.1-1.33-5.16-1.56A2.85,2.85,0,0,0,33.49,345.2Z"/><path d="M55.42,344.63V344c2.74,0,3.14-.56,3.14-3.89v-10.8c0-3.33-.4-3.86-3.14-3.86v-.7h8.93v.7c-2.75,0-3.14.53-3.14,3.86v10.8c0,3.33.39,3.89,3.14,3.89v.7Z"/><path d="M90.84,329.24c0-3.33-.4-3.86-3.15-3.86v-.7h7.54v.7c-2.74,0-3.17.53-3.17,3.86v16H91.3L77.84,328.47V340c0,3.33.43,3.89,3.17,3.89v.7H73.48V344c2.74,0,3.14-.56,3.14-3.89v-10.8c0-3.33-.4-3.86-3.14-3.86v-.7h4.66l12.7,15.83Z"/><path d="M122.58,344.27a3.41,3.41,0,0,0-1.12-1.9,8.56,8.56,0,0,1-6.15,2.83,10.55,10.55,0,0,1,0-21.08,8.43,8.43,0,0,1,6.15,2.82,3.38,3.38,0,0,0,1.12-1.89h.66v7.31h-.66c-.92-4.32-3.47-7-7.14-7-5.29,0-7.21,5.12-7.21,9.25s1.92,9.21,7.21,9.21c3.67,0,6.22-2.66,7.14-6.92h.66v7.32Z"/><path d="M133.56,344c2.75,0,3.15-.56,3.15-3.89v-10.8c0-3.33-.4-3.86-3.15-3.86v-.7h15.08l.3,4.39h-.7l-.16-.66c-.46-1.73-.79-2.5-3.84-2.5h-4.89v7.55H141c3.31,0,3.84-.4,3.84-3.19h.69v7.61h-.69c0-2.79-.53-3.19-3.84-3.19h-1.65v4.86c0,3.32.4,3.85,3.14,3.85h2.85c3,0,3.4-.76,3.83-2.52l.17-.67H150l-.26,4.42H133.56Z"/><path d="M174.53,343.82l5.29-6.7c2.58-3.27,3.86-5.8,3.86-7.65,0-2.39-1.07-4.18-3.65-4.18s-4.46,2.26-2.58,5.06l-.94,1c-4.22-2.46-2.62-7.54,3.55-7.54,4,0,6.2,2.72,6.2,5.59,0,2.69-1.68,4.78-4.36,7.85l-4.42,5.08h5c2.94,0,3.41-.53,4-2.56h.74l-.84,4.82h-11.8Z"/><path d="M204.75,345.2c-3.75,0-6.83-4.81-6.83-10.68s3.08-10.67,6.83-10.67,6.84,4.81,6.84,10.67S208.47,345.2,204.75,345.2Zm-4.12-10.68c0,4.18,1,9.34,4.12,9.34s4.09-5.16,4.09-9.34-1-9.36-4.09-9.36S200.63,330.35,200.63,334.52Z"/><path d="M229.32,345.2c-3.76,0-6.84-4.81-6.84-10.68s3.08-10.67,6.84-10.67,6.83,4.81,6.83,10.67S233,345.2,229.32,345.2Zm-4.12-10.68c0,4.18,1,9.34,4.12,9.34s4.09-5.16,4.09-9.34-1-9.36-4.09-9.36S225.2,330.35,225.2,334.52Z"/><path d="M260.55,339.31c0,3.37-3.05,5.89-6.77,5.89s-6.74-2.49-6.74-5.62c0-3.47,2.45-4.95,4.9-6-2-1.24-3.76-2.59-3.76-4.88,0-2.8,2.55-4.85,5.6-4.85s5.63,2.08,5.63,4.58c0,2.35-2,3.64-4.29,4.68C257.77,334.46,260.55,335.84,260.55,339.31Zm-10.83.27a4,4,0,0,0,3.68,4.3h.38a4,4,0,0,0,4-3.95v-.05c0-2.76-2.28-4.21-4.82-5.66a6,6,0,0,0-3.29,5.35Zm7-11.42a2.82,2.82,0,0,0-2.63-3h-.28a2.79,2.79,0,0,0-2.89,2.69c0,.1,0,.21,0,.31,0,2.19,1.3,3.37,3.18,4.41a5,5,0,0,0,2.58-4.41Z"/></g></g></g></g></g></g></g></svg>